# xmcd CD database file
#
# Track frame offsets:
#	171
#	18942
#	41244
#	62457
#	79723
#	103076
#	125071
#	148304
#	167960
#
# Disc length: 2498 seconds
#
# Revision: 0
# Processed by: cddbd v1.5.2PL0 Copyright (c) Steve Scherf et al.
# Submitted via: CDex 1.51
#
DISCID=7e09c009
DTITLE=Jamie Cullum - Momentum - CD2
DYEAR=2013
DGENRE=Jazz
TTITLE0=Momentum
TTITLE1=Unison
TTITLE2=Comes Love
TTITLE3=Everything You Didn't Do - Live At Abbey Road
TTITLE4=Feat.Laura Mvula_Sad, Sad World - Live At Abbey Road
TTITLE5=Love For $ale - Live At Abbey Road
TTITLE6=Pure Imagination - Live At Abbey Road
TTITLE7=You're Not The Only One - Live At Abbey Road
TTITLE8=Save Your Soul - Live At Abbey Road
EXTD=YEAR: 2013
EXTT0=
EXTT1=
EXTT2=
EXTT3=
EXTT4=
EXTT5=
EXTT6=
EXTT7=
EXTT8=
PLAYORDER=
